<svg width="24" height="24" viewBox="0 0 24 24" fill="none" xmlns="http://www.w3.org/2000/svg">
<path fill-rule="evenodd" clip-rule="evenodd" d="M17.6378 7.10999V7.10999C17.2648 7.10999 16.9268 6.89499 16.7678 6.55899C16.4808 5.95099 16.1158 5.17399 15.8998 4.75099C15.5808 4.12199 15.0638 3.75599 14.3478 3.75099C14.3358 3.74999 9.66382 3.74999 9.65182 3.75099C8.93582 3.75599 8.41982 4.12199 8.09982 4.75099C7.88482 5.17399 7.51982 5.95099 7.23282 6.55899C7.07382 6.89499 6.73482 7.10999 6.36282 7.10999V7.10999C4.36682 7.10999 2.74982 8.72699 2.74982 10.722V16.658C2.74982 18.652 4.36682 20.27 6.36282 20.27H17.6378C19.6328 20.27 21.2498 18.652 21.2498 16.658V10.722C21.2498 8.72699 19.6328 7.10999 17.6378 7.10999Z" stroke="#200E32" stroke-width="1.5" stroke-linecap="round" stroke-linejoin="round"/>
<path fill-rule="evenodd" clip-rule="evenodd" d="M8.82139 13.3346C8.82039 15.0876 10.2514 16.5216 12.0014 16.5206C13.7484 16.5186 15.1754 15.0906 15.1784 13.3416C15.1814 11.5856 13.7554 10.1546 12.0034 10.1526C10.2414 10.1506 8.80739 11.6056 8.82139 13.3346Z" stroke="#200E32" stroke-width="1.5" stroke-linecap="round" stroke-linejoin="round"/>
<path d="M16.9025 10.9951C16.8059 10.9852 16.7105 10.96 16.6036 10.9169C16.4847 10.8641 16.3818 10.7969 16.2823 10.6959C16.1035 10.5057 16 10.257 16 10.0005C16 9.86422 16.0279 9.72916 16.0823 9.60681C16.1368 9.48285 16.2014 9.37829 16.3182 9.26456C16.407 9.18719 16.498 9.12493 16.6224 9.07013C16.9913 8.92396 17.4301 9.0113 17.7043 9.28541C17.7865 9.36639 17.8557 9.46411 17.8941 9.54651L17.9169 9.60494C17.9721 9.72916 18 9.86422 18 10.0005C18 10.2622 17.8978 10.5043 17.7081 10.7058C17.5442 10.8708 17.3289 10.9723 17.0992 10.9951L17 11L16.9025 10.9951Z" fill="#200E32"/>
</svg>
