<svg width="24" height="24" viewBox="0 0 24 24" fill="none" xmlns="http://www.w3.org/2000/svg">
<path fill-rule="evenodd" clip-rule="evenodd" d="M14.38 4.29791C13.5874 3.05583 11.9449 2.62625 10.6302 3.35492C10.1664 3.60989 9.78196 3.99393 9.52432 4.46015L2.25255 17.1868L2.18783 17.358C1.67381 18.8448 2.37091 20.3951 3.76382 20.9625L3.98682 21.0419C4.21229 21.1118 4.44476 21.1535 4.68079 21.1667L4.76405 21.165L4.79575 21.1679H19.2777L19.4538 21.1536C20.9645 20.9865 22.074 19.6979 21.9968 18.1954C21.9788 17.8746 21.9097 17.5637 21.7904 17.2737L14.4709 4.45083L14.38 4.29791ZM11.355 4.66815C11.9995 4.31095 12.808 4.54334 13.1635 5.18598L20.4455 17.931L20.4672 18.0285C20.48 18.0953 20.4938 18.1845 20.4989 18.2759C20.5364 19.0056 19.9726 19.6305 19.2386 19.6689L4.79575 19.6679L4.76505 19.669L4.61442 19.6526C4.51547 19.6363 4.41922 19.6094 4.32696 19.5722C3.64964 19.2963 3.32249 18.5212 3.59865 17.8411L10.8319 5.19499L10.9138 5.06424C11.0313 4.89785 11.1812 4.76373 11.355 4.66815ZM11.2503 16.2696C11.2503 15.8556 11.5863 15.5136 12.0003 15.5136C12.4143 15.5136 12.7503 15.8446 12.7503 16.2586V16.2696C12.7503 16.6836 12.4143 17.0196 12.0003 17.0196C11.5863 17.0196 11.2503 16.6836 11.2503 16.2696ZM12.7331 10.1943C12.6834 9.82826 12.3696 9.54611 11.9899 9.54611C11.5757 9.54611 11.2399 9.8819 11.2399 10.2961V13.3961L11.2468 13.4979C11.2965 13.864 11.6103 14.1461 11.9899 14.1461C12.4042 14.1461 12.7399 13.8103 12.7399 13.3961V10.2961L12.7331 10.1943Z" fill="#200E32"/>
</svg>
