<svg width="24" height="24" viewBox="0 0 24 24" fill="none" xmlns="http://www.w3.org/2000/svg">
<path d="M7.8907 16.3826H5.77835C4.76082 16.3826 4.0747 15.6869 3.936 14.5392C3.738 13.1267 3.75706 10.5749 3.936 9.13281C4.0747 8.13752 4.76082 7.35399 5.77835 7.35399H7.8907L11.604 4.31622C11.9291 4.03987 12.4913 3.7794 12.8333 3.78681C13.5565 3.76458 14.2267 4.29081 14.484 5.14952C14.6259 5.69693 14.6651 6.3354 14.7371 6.92622C14.8091 7.50116 14.8514 7.44928 14.8631 9.18258" stroke="#200E32" stroke-width="1.5" stroke-linecap="round" stroke-linejoin="round"/>
<path d="M14.8599 14.1914C14.8408 15.5276 14.7953 16.3408 14.7371 16.8099C14.6651 17.4007 14.6439 17.9841 14.484 18.5855C14.2267 19.4453 13.5565 19.9705 12.8333 19.9482C12.4913 19.9567 12.0074 19.7481 11.6824 19.4728L10.2858 18.3335" stroke="#200E32" stroke-width="1.5" stroke-linecap="round" stroke-linejoin="round"/>
<path d="M20.9957 3.29395L3.84802 20.4416" stroke="#200E32" stroke-width="1.5" stroke-linecap="round" stroke-linejoin="round"/>
</svg>
