<svg width="24" height="24" viewBox="0 0 24 24" fill="none" xmlns="http://www.w3.org/2000/svg">
<path fill-rule="evenodd" clip-rule="evenodd" d="M21.526 2.76362C21.2331 2.47072 20.7582 2.47072 20.4653 2.76362L15.5766 7.65232C15.5694 7.54231 15.5608 7.44511 15.5507 7.35293L15.4908 6.90557L15.3891 5.99697C15.3383 5.56335 15.2886 5.2645 15.21 4.96125C14.8562 3.77845 13.9039 3.00345 12.8103 3.03708L12.6551 3.04327C12.1718 3.09024 11.5402 3.38594 11.1182 3.74472L7.62302 6.60293L5.77837 6.6039L5.60114 6.60968C4.31693 6.69412 3.37924 7.69423 3.1932 9.0292C2.99838 10.5986 2.99213 13.2082 3.19328 14.6432C3.37391 16.139 4.36327 17.1325 5.77837 17.1325H6.09647L3.3177 19.9113L3.24508 19.9954C3.02723 20.289 3.05143 20.7057 3.3177 20.9719C3.61059 21.2648 4.08547 21.2648 4.37836 20.9719L21.526 3.82428L21.5986 3.74016C21.8165 3.44655 21.7923 3.02988 21.526 2.76362ZM7.59647 15.6325L14.1121 9.11688L14.0985 8.17085C14.0902 7.8795 14.0782 7.68876 14.0606 7.52599L13.9749 6.86645L13.9233 6.38639C13.8701 5.89231 13.8262 5.60089 13.7656 5.36469C13.6049 4.82845 13.2318 4.52482 12.8171 4.53655C12.7104 4.53423 12.3959 4.66674 12.1696 4.8267L12.0789 4.89663L8.36562 7.9344C8.25842 8.02209 8.1296 8.07795 7.99373 8.09679L7.89072 8.1039H5.77837C5.205 8.1039 4.77607 8.53858 4.68031 9.22508C4.50257 10.6575 4.49664 13.1358 4.6806 14.4491C4.77006 15.1894 5.11453 15.5787 5.65872 15.6273L5.77837 15.6325H7.59647ZM14.8706 13.4414C15.2848 13.4473 15.6157 13.7879 15.6098 14.2021L15.5932 15.0252C15.5727 15.7858 15.5403 16.361 15.4966 16.7702L15.3827 17.8275C15.3371 18.2104 15.2887 18.4774 15.2025 18.8005C14.8564 19.957 13.9043 20.7315 12.8519 20.698C12.3752 20.7098 11.8047 20.4945 11.3661 20.1774L11.2083 20.0539L9.81169 18.9146C9.49073 18.6528 9.4428 18.1803 9.70463 17.8594C9.94266 17.5676 10.3547 17.5015 10.6689 17.6886L10.7599 17.7523L12.1671 18.9004C12.3686 19.0711 12.6808 19.2017 12.8564 19.1985C13.2323 19.2101 13.6049 18.907 13.7592 18.3928L13.8135 18.1637C13.8376 18.0474 13.8577 17.9248 13.8771 17.7785L13.9928 16.7174C14.0515 16.2442 14.0924 15.4107 14.11 14.1807C14.1159 13.7665 14.4564 13.4355 14.8706 13.4414Z" fill="#200E32"/>
</svg>
