<svg width="24" height="24" viewBox="0 0 24 24" fill="none" xmlns="http://www.w3.org/2000/svg">
<path fill-rule="evenodd" clip-rule="evenodd" d="M11.3721 3.39502V13.6192L9.73757 11.9791L9.6536 11.9063C9.36043 11.6878 8.94372 11.7112 8.67691 11.9769C8.38341 12.2692 8.38244 12.7441 8.67473 13.0376L11.5907 15.9656L11.593 15.9675C11.6176 15.9921 11.644 16.0149 11.6718 16.0358L11.6749 16.0385C11.969 16.2575 12.3871 16.2331 12.6536 15.9656L15.5696 13.0376L15.642 12.9533C15.8593 12.6592 15.8342 12.2426 15.5674 11.9769L15.4831 11.9045C15.1891 11.6872 14.7724 11.7123 14.5067 11.9791L12.8721 13.6197V3.39502L12.8653 3.29325C12.8156 2.92717 12.5018 2.64502 12.1221 2.64502C11.7079 2.64502 11.3721 2.98081 11.3721 3.39502ZM17.9053 21.1171C20.2527 21.0084 22.1219 19.0713 22.1219 16.6969V11.8129L22.1171 11.6041C22.0082 9.25109 20.0674 7.37792 17.6879 7.37792H16.7549L16.6532 7.38477C16.2871 7.43443 16.0049 7.74822 16.0049 8.12792C16.0049 8.54213 16.3407 8.87792 16.7549 8.87792H17.6879L17.8604 8.8829C19.401 8.97212 20.6219 10.2492 20.6219 11.8129V16.6969L20.617 16.8688C20.528 18.4046 19.255 19.6219 17.6969 19.6219H6.55695L6.38451 19.6169C4.84397 19.5277 3.62195 18.2498 3.62195 16.6869V11.8019L3.62691 11.6301C3.71591 10.0955 4.98959 8.87792 6.54695 8.87792H7.48895L7.59072 8.87107C7.95679 8.82141 8.23895 8.50762 8.23895 8.12792C8.23895 7.71371 7.90316 7.37792 7.48895 7.37792H6.54695L6.3326 7.38302C3.98875 7.49484 2.12195 9.43069 2.12195 11.8019V16.6869L2.12678 16.8957C2.2358 19.248 4.17771 21.1219 6.55695 21.1219H17.6969L17.9053 21.1171Z" fill="#200E32"/>
</svg>
