<svg width="24" height="24" viewBox="0 0 24 24" fill="none" xmlns="http://www.w3.org/2000/svg">
<path fill-rule="evenodd" clip-rule="evenodd" d="M12.0002 2.75C17.1082 2.75 21.2502 6.892 21.2502 12C21.2502 17.108 17.1082 21.25 12.0002 21.25C6.89118 21.25 2.75018 17.108 2.75018 12C2.75018 6.892 6.89118 2.75 12.0002 2.75Z" stroke="#200E32" stroke-width="1.5" stroke-linecap="round" stroke-linejoin="round"/>
<path opacity="0.4" d="M7.52069 13.1972C6.85969 13.1972 6.32269 12.6602 6.32269 12.0002C6.32269 11.3402 6.85969 10.8022 7.52069 10.8022C8.18169 10.8022 8.71869 11.3402 8.71869 12.0002C8.71869 12.6602 8.18169 13.1972 7.52069 13.1972Z" fill="#200E32"/>
<path opacity="0.4" d="M12.0002 13.1972C11.3392 13.1972 10.8022 12.6602 10.8022 12.0002C10.8022 11.3402 11.3392 10.8022 12.0002 10.8022C12.6612 10.8022 13.1982 11.3402 13.1982 12.0002C13.1982 12.6602 12.6612 13.1972 12.0002 13.1972Z" fill="#200E32"/>
<path opacity="0.4" d="M16.4792 13.1972C15.8182 13.1972 15.2812 12.6602 15.2812 12.0002C15.2812 11.3402 15.8182 10.8022 16.4792 10.8022C17.1402 10.8022 17.6772 11.3402 17.6772 12.0002C17.6772 12.6602 17.1402 13.1972 16.4792 13.1972Z" fill="#200E32"/>
</svg>
