<svg width="24" height="24" viewBox="0 0 24 24" fill="none" xmlns="http://www.w3.org/2000/svg">
<path fill-rule="evenodd" clip-rule="evenodd" d="M16.4335 20.5728C18.7825 20.5228 20.6555 18.5658 20.6035 16.2118V11.8698C20.6055 11.7648 20.6045 11.6718 20.6005 11.5788C20.4995 9.24082 18.6105 7.49682 16.1955 7.49682C16.1844 7.49682 16.1741 7.49725 16.1631 7.49771C16.1504 7.49824 16.1367 7.49882 16.1195 7.49882H7.88251C7.75651 7.49382 7.66551 7.49282 7.57451 7.49482C6.43151 7.51982 5.36951 7.98582 4.58151 8.81082C3.79151 9.63382 3.37151 10.7148 3.39651 11.8558V16.1958C3.39451 16.3038 3.39551 16.3978 3.39951 16.4898C3.50251 18.8428 5.48051 20.6828 7.85051 20.5698C10.5695 20.6158 13.3325 20.6158 16.1065 20.5688C16.2425 20.5748 16.3385 20.5758 16.4335 20.5728ZM16.1145 6.10382C19.2975 6.07782 21.8605 8.44082 21.9945 11.5178C21.9995 11.6388 22.0005 11.7628 21.9985 11.8858V16.1958C22.0665 19.3038 19.5825 21.8998 16.4605 21.9688C16.3325 21.9718 16.2115 21.9688 16.0895 21.9638C14.7115 21.9878 13.3255 21.9998 11.9465 21.9998C10.5755 21.9998 9.21151 21.9878 7.86951 21.9648C4.79051 22.0958 2.14251 19.6718 2.00551 16.5528C1.99951 16.4298 1.99951 16.3058 2.00151 16.1818V11.8698C1.96851 10.3728 2.52651 8.93882 3.57351 7.84582C4.61951 6.75182 6.02851 6.13182 7.54151 6.09982C7.66451 6.09582 7.79051 6.09682 7.91651 6.10482L11.8715 6.10382V5.87282C11.8625 5.19682 11.3005 4.64382 10.6165 4.64382H10.6065H9.61851H9.60051C8.53651 4.64382 7.66051 3.77682 7.64851 2.70582C7.64451 2.31982 7.95451 2.00482 8.33851 2.00082C8.68251 1.98482 9.04051 2.30582 9.04351 2.69082C9.04651 2.99882 9.29951 3.24782 9.60651 3.24782H9.61251H10.6015H10.6215C12.0615 3.24782 13.2475 4.41682 13.2665 5.86382V6.10382H16.1145ZM9.07981 11.5855C9.45253 11.5855 9.76056 11.8578 9.80931 12.2111L9.81603 12.3093V13.3258H10.8499C11.2565 13.3258 11.5861 13.6499 11.5861 14.0497C11.5861 14.4162 11.3092 14.719 10.9498 14.767L10.8499 14.7736H9.81603V15.7901C9.81603 16.1899 9.48641 16.5139 9.07981 16.5139C8.70708 16.5139 8.39905 16.2416 8.3503 15.8883L8.34358 15.7901V14.7736H7.30972C6.90311 14.7736 6.57349 14.4495 6.57349 14.0497C6.57349 13.6832 6.85046 13.3804 7.20981 13.3324L7.30972 13.3258H8.34358V12.3093C8.34358 11.9095 8.6732 11.5855 9.07981 11.5855ZM15.8541 12.4153C15.8541 12.0156 15.5245 11.6915 15.1179 11.6915H15.019L14.9191 11.6981C14.5598 11.746 14.2828 12.0489 14.2828 12.4153C14.2828 12.8151 14.6124 13.1392 15.019 13.1392H15.1179L15.2178 13.1326C15.5771 13.0847 15.8541 12.7818 15.8541 12.4153ZM16.7981 15.0132C17.2047 15.0132 17.5343 15.3373 17.5343 15.7371C17.5343 16.1035 17.2574 16.4064 16.898 16.4543L16.7981 16.4609H16.6993C16.2927 16.4609 15.9631 16.1369 15.9631 15.7371C15.9631 15.3706 16.24 15.0677 16.5994 15.0198L16.6993 15.0132H16.7981Z" fill="#200E32"/>
</svg>
