<svg width="24" height="24" viewBox="0 0 24 24" fill="none" xmlns="http://www.w3.org/2000/svg">
<path fill-rule="evenodd" clip-rule="evenodd" d="M7.66537 2H16.3344C19.7234 2 22.0004 4.378 22.0004 7.916V16.084C22.0004 19.622 19.7224 22 16.3334 22H10.9534C10.5394 22 10.2034 21.664 10.2034 21.25C10.2034 20.836 10.5394 20.5 10.9534 20.5H16.3334C18.8644 20.5 20.5004 18.767 20.5004 16.084V7.916C20.5004 5.233 18.8644 3.5 16.3344 3.5H7.66537C5.13537 3.5 3.50037 5.233 3.50037 7.916V16.084C3.50037 18.767 5.13537 20.5 7.66537 20.5C8.07937 20.5 8.41537 20.836 8.41537 21.25C8.41537 21.664 8.07937 22 7.66537 22C4.27637 22 2.00037 19.622 2.00037 16.084V7.916C2.00037 4.378 4.27637 2 7.66537 2ZM6.46737 10.9326C6.63737 10.5546 7.07937 10.3856 7.45937 10.5566C7.83737 10.7256 8.00537 11.1696 7.83537 11.5476C7.77137 11.6906 7.73937 11.8426 7.73937 11.9996C7.73937 12.6076 8.23337 13.1016 8.84037 13.1016C9.44837 13.1016 9.94237 12.6076 9.94237 11.9996C9.94237 11.3926 9.44837 10.8986 8.84037 10.8986C8.42637 10.8986 8.09037 10.5626 8.09037 10.1486C8.09037 9.7346 8.42637 9.3986 8.84037 9.3986C10.0134 9.3986 10.9944 10.1826 11.3184 11.2496H17.0104C17.4244 11.2496 17.7604 11.5856 17.7604 11.9996V13.8516C17.7604 14.2656 17.4244 14.6016 17.0104 14.6016C16.5964 14.6016 16.2604 14.2656 16.2604 13.8516V12.7496H14.9314V13.8516C14.9314 14.2656 14.5954 14.6016 14.1814 14.6016C13.7674 14.6016 13.4314 14.2656 13.4314 13.8516V12.7496H11.3184C10.9944 13.8176 10.0134 14.6016 8.84037 14.6016C7.40637 14.6016 6.23937 13.4346 6.23937 11.9996C6.23937 11.6286 6.31537 11.2706 6.46737 10.9326Z" fill="#200E32"/>
</svg>
