<svg width="24" height="24" viewBox="0 0 24 24" fill="none" xmlns="http://www.w3.org/2000/svg">
<path fill-rule="evenodd" clip-rule="evenodd" d="M9.87743 15.2065C6.03343 15.2065 2.75043 15.7875 2.75043 18.1155C2.75043 20.4425 6.01243 21.0455 9.87743 21.0455C13.7214 21.0455 17.0044 20.4635 17.0044 18.1365C17.0044 15.8095 13.7424 15.2065 9.87743 15.2065Z" stroke="#200E32" stroke-width="1.5" stroke-linecap="round" stroke-linejoin="round"/>
<path opacity="0.4" fill-rule="evenodd" clip-rule="evenodd" d="M9.87745 11.886C12.4134 11.886 14.4454 9.853 14.4454 7.318C14.4454 4.782 12.4134 2.75 9.87745 2.75C7.34245 2.75 5.30945 4.782 5.30945 7.318C5.30945 9.853 7.34245 11.886 9.87745 11.886Z" stroke="#200E32" stroke-width="1.5" stroke-linecap="round" stroke-linejoin="round"/>
<path d="M19.2041 8.66943V12.6794" stroke="#200E32" stroke-width="1.5" stroke-linecap="round" stroke-linejoin="round"/>
<path d="M21.25 10.6743H17.16" stroke="#200E32" stroke-width="1.5" stroke-linecap="round" stroke-linejoin="round"/>
</svg>
