<svg width="24" height="24" viewBox="0 0 24 24" fill="none" xmlns="http://www.w3.org/2000/svg">
<path d="M9.82727 10.8014L7.14117 13.5558C5.39669 11.5739 3.95948 9.52074 3.27557 7.80304C2.56192 6.19713 2.55201 4.86566 3.26566 3.86959C3.54319 3.40205 5.15881 1.44041 6.59602 1.50139C6.98258 1.53188 7.35923 1.73516 7.71605 2.10106C8.27111 2.66008 9.83718 4.68271 9.95612 5.27221C10.0949 5.94304 9.79753 6.4614 9.53982 6.92894C9.27221 7.39648 8.55856 8.30107 8.74688 8.8296C9.02441 9.51058 9.39115 10.1712 9.82727 10.8014Z" fill="#200E32"/>
<path d="M21.9493 17.0724C21.9988 18.5868 19.9967 20.3045 19.6299 20.5179C19.1443 20.8737 18.5793 21.0566 17.9449 21.0566C17.3007 21.0566 16.5771 20.8737 15.7941 20.4976C13.9406 19.7048 11.6509 18.0176 9.5199 16.0153L12.1862 13.2822C13.0088 13.9317 13.9009 14.4704 14.8128 14.8475C15.3183 15.0396 16.1905 14.3078 16.6564 14.0333C17.1123 13.7691 17.6178 13.4642 18.2621 13.6065C18.8469 13.7284 20.8193 15.3648 21.3645 15.934C21.7213 16.3101 21.9096 16.6963 21.9493 17.0724Z" fill="#200E32"/>
<path opacity="0.4" d="M21.3749 3.85937V3.86954L11.9586 13.5151L3.44441 22.246C3.27591 22.4086 3.06777 22.5 2.84971 22.5C2.63165 22.5 2.4235 22.4086 2.24509 22.246C1.96756 21.9512 1.92791 21.5141 2.11623 21.1889L2.14597 21.1482C2.16579 21.1167 2.18562 21.0873 2.21535 21.0568L20.1755 2.62954C20.3242 2.46691 20.5423 2.36426 20.7702 2.36426C20.9982 2.36426 21.2163 2.46691 21.3749 2.62954C21.7019 2.97511 21.7019 3.5138 21.3749 3.85937Z" fill="#200E32"/>
</svg>
