<svg width="24" height="24" viewBox="0 0 24 24" fill="none" xmlns="http://www.w3.org/2000/svg">
<path fill-rule="evenodd" clip-rule="evenodd" d="M2.00009 12C2.00009 6.485 6.48609 2 12.0001 2C17.5141 2 22.0001 6.485 22.0001 12C22.0001 17.514 17.5141 22 12.0001 22C10.6051 22 9.25509 21.719 7.98709 21.162C7.62109 21.002 7.45509 20.575 7.61509 20.209C7.77509 19.841 8.20109 19.676 8.56909 19.837C9.65209 20.312 10.8061 20.553 12.0001 20.553C16.7151 20.553 20.5521 16.715 20.5521 12C20.5521 7.284 16.7151 3.448 12.0001 3.448C7.28409 3.448 3.44809 7.284 3.44809 12C3.44809 13.847 4.02609 15.604 5.12209 17.084C5.35909 17.405 5.29209 17.858 4.97109 18.096C4.64909 18.335 4.19609 18.269 3.95809 17.945C2.67709 16.216 2.00009 14.16 2.00009 12ZM10.8199 15.9694H10.8559C11.1489 15.9624 11.7549 15.7104 11.7609 15.7074C12.7789 15.2784 14.7939 13.9544 15.6079 13.0784L15.6569 13.0264C15.7569 12.9204 15.9059 12.7554 15.9409 12.7084C16.0909 12.5014 16.1709 12.2554 16.1709 12.0004C16.1709 11.7314 16.0799 11.4664 15.9129 11.2534C15.8859 11.2194 15.7699 11.0934 15.6759 10.9944L15.5969 10.9094C14.8049 10.0644 12.7429 8.6734 11.6599 8.2534C11.4949 8.1884 11.0869 8.0364 10.8639 8.0304C10.6519 8.0274 10.4469 8.0724 10.2509 8.1754C10.0079 8.3074 9.81594 8.5194 9.71394 8.7664C9.63894 8.9424 9.53894 9.4654 9.53794 9.4734C9.43294 10.0524 9.37294 10.9734 9.37494 11.9994C9.37294 12.9694 9.42694 13.8584 9.52194 14.4364C9.52294 14.4424 9.63594 15.0894 9.75394 15.3184C9.95994 15.7164 10.3779 15.9694 10.8199 15.9694ZM10.9619 9.7334C10.9699 9.6874 10.9839 9.6194 10.9989 9.5504C11.0529 9.5704 11.1009 9.5884 11.1319 9.6004C11.9989 9.9374 13.9099 11.2254 14.5369 11.8964L14.6209 11.9854C14.6228 11.9873 14.6246 11.9892 14.6263 11.991C14.6268 11.9917 14.6274 11.9923 14.6279 11.9929C14.6291 11.9942 14.6303 11.9955 14.6315 11.9968C14.6326 11.998 14.6337 11.9992 14.6349 12.0004C14.6239 12.0104 14.6139 12.0214 14.6049 12.0314C14.6039 12.0334 14.5519 12.0924 14.5469 12.0914C13.9399 12.7474 12.1259 13.9824 11.1999 14.3724C11.1761 14.3821 11.1454 14.394 11.1118 14.407L11.1117 14.407C11.0764 14.4207 11.0379 14.4355 11.0009 14.4504C10.9799 14.3584 10.9609 14.2634 10.9509 14.2014C10.8689 13.7064 10.8209 12.8824 10.8219 11.9994C10.8209 11.0834 10.8749 10.2144 10.9619 9.7334Z" fill="#200E32"/>
</svg>
