<svg width="24" height="24" viewBox="0 0 24 24" fill="none" xmlns="http://www.w3.org/2000/svg">
<path fill-rule="evenodd" clip-rule="evenodd" d="M13.4499 4.88017H16.5199C20.2099 4.88017 22.0099 6.85017 21.9999 10.8902V15.7602C21.9999 19.6202 19.6199 22.0002 15.7499 22.0002H8.23989C4.38989 22.0002 1.99989 19.6202 1.99989 15.7502V8.24017C1.99989 4.10017 3.83989 2.00017 7.46989 2.00017H9.04989C9.98089 1.99017 10.8499 2.42017 11.4199 3.15017L12.2999 4.32017C12.5799 4.67017 12.9999 4.88017 13.4499 4.88017ZM7.36989 15.2902H16.6299C17.0399 15.2902 17.3699 14.9502 17.3699 14.5402C17.3699 14.1202 17.0399 13.7902 16.6299 13.7902H7.36989C6.94989 13.7902 6.61989 14.1202 6.61989 14.5402C6.61989 14.9502 6.94989 15.2902 7.36989 15.2902Z" fill="#200E32"/>
</svg>
