<svg width="24" height="24" viewBox="0 0 24 24" fill="none" xmlns="http://www.w3.org/2000/svg">
<path opacity="0.4" d="M16.0201 10.9138C17.8411 10.9138 19.3171 9.43782 19.3171 7.61682C19.3171 5.79682 17.8411 4.31982 16.0201 4.31982" stroke="#200E32" stroke-width="1.5" stroke-linecap="round" stroke-linejoin="round"/>
<path d="M17.5363 14.4966C18.0803 14.5336 18.6203 14.6116 19.1533 14.7296C19.8923 14.8766 20.7823 15.1796 21.0983 15.8426C21.3003 16.2676 21.3003 16.7626 21.0983 17.1876C20.7833 17.8506 19.8923 18.1536 19.1533 18.3056" stroke="#200E32" stroke-width="1.5" stroke-linecap="round" stroke-linejoin="round"/>
<path fill-rule="evenodd" clip-rule="evenodd" d="M9.59143 15.2065C13.2814 15.2065 16.4334 15.7655 16.4334 17.9985C16.4334 20.2325 13.3014 20.8105 9.59143 20.8105C5.90143 20.8105 2.75043 20.2525 2.75043 18.0185C2.75043 15.7845 5.88143 15.2065 9.59143 15.2065Z" stroke="#200E32" stroke-width="1.5" stroke-linecap="round" stroke-linejoin="round"/>
<path opacity="0.4" fill-rule="evenodd" clip-rule="evenodd" d="M9.5914 12.019C7.1574 12.019 5.2074 10.068 5.2074 7.634C5.2074 5.201 7.1574 3.25 9.5914 3.25C12.0254 3.25 13.9764 5.201 13.9764 7.634C13.9764 10.068 12.0254 12.019 9.5914 12.019Z" stroke="#200E32" stroke-width="1.5" stroke-linecap="round" stroke-linejoin="round"/>
</svg>
