<svg width="24" height="24" viewBox="0 0 24 24" fill="none" xmlns="http://www.w3.org/2000/svg">
<path opacity="0.4" fill-rule="evenodd" clip-rule="evenodd" d="M21.524 9.75272C20.8849 5.81932 17.5439 2.89308 13.5606 2.77789C13.3712 2.77047 13.1867 2.83866 13.0476 2.96743C12.9085 3.0962 12.8264 3.27499 12.8192 3.46439V3.46439V3.52846L13.2677 10.2378C13.2971 10.6895 13.6854 11.0328 14.1373 11.0067L20.865 10.5582C21.0545 10.5442 21.2307 10.4552 21.3544 10.3108C21.4781 10.1665 21.5392 9.97882 21.524 9.78933V9.75272Z" stroke="#200E32" stroke-width="1.5" stroke-linecap="round" stroke-linejoin="round"/>
<path d="M8.9016 6.76877C9.32956 6.66978 9.7675 6.88875 9.94508 7.29051C9.9916 7.385 10.0196 7.48754 10.0275 7.59257C10.119 8.89234 10.3112 11.739 10.4211 13.2768C10.4398 13.5538 10.5682 13.8119 10.7778 13.994C10.9873 14.1761 11.2608 14.2671 11.5378 14.247V14.247L17.1854 13.8992C17.4375 13.884 17.6847 13.9738 17.8684 14.1471C18.0521 14.3204 18.1561 14.562 18.1556 14.8145V14.8145C17.9267 18.2249 15.4765 21.0759 12.1393 21.815C8.80211 22.554 5.37727 21.0039 3.72998 18.009C3.23823 17.1471 2.92681 16.1941 2.81464 15.2081C2.76669 14.9055 2.7483 14.599 2.75972 14.2928C2.76944 10.6508 5.32723 7.51273 8.89245 6.76877" stroke="#200E32" stroke-width="1.5" stroke-linecap="round" stroke-linejoin="round"/>
</svg>
