<svg width="24" height="24" viewBox="0 0 24 24" fill="none" xmlns="http://www.w3.org/2000/svg">
<path d="M6.2866 13.2249C4.9346 11.6079 3.8416 9.97989 3.2696 8.59089C2.6096 7.15189 2.5696 5.96089 3.2296 5.06189C3.5396 4.55089 5.2396 2.69189 6.4506 2.75089C6.8096 2.78189 7.1296 3.00089 7.3906 3.25089C7.6896 3.54089 8.2696 4.24189 8.7796 4.92089C9.2896 5.60189 9.7496 6.27189 9.7896 6.50089C10.0296 7.64088 8.6696 8.30088 9.0896 9.44188C9.1826 9.66888 9.2806 9.88989 9.3866 10.1039" stroke="#200E32" stroke-width="1.5" stroke-linecap="round" stroke-linejoin="round"/>
<path d="M2.75 21.2512L21.25 2.75122" stroke="#200E32" stroke-width="1.5" stroke-linecap="round" stroke-linejoin="round"/>
<path d="M8.43994 15.5617C10.7599 17.8807 13.3899 19.9017 15.4199 20.7417C16.8599 21.4117 18.0399 21.4207 18.9399 20.7717C19.3299 20.5507 21.2999 18.8317 21.2499 17.5507C21.2199 17.1917 20.9999 16.8717 20.7499 16.6117C20.1699 16.0107 17.9599 14.3007 17.4999 14.2107C16.3599 13.9707 15.6999 15.3317 14.5599 14.9117C13.2699 14.3807 12.1599 13.6617 11.2499 12.7507" stroke="#200E32" stroke-width="1.5" stroke-linecap="round" stroke-linejoin="round"/>
</svg>
