<svg width="24" height="24" viewBox="0 0 24 24" fill="none" xmlns="http://www.w3.org/2000/svg">
<path fill-rule="evenodd" clip-rule="evenodd" d="M2.87778 2.51087L2.77634 2.50026C2.40716 2.48676 2.07562 2.74784 2.01087 3.12197L2.00026 3.22342C1.98676 3.5926 2.24784 3.92414 2.62197 3.98889L4.13098 4.24988L5.04551 15.1456L5.06443 15.3094C5.24843 16.5518 6.31708 17.4859 7.58988 17.4859H18.5019L18.6662 17.4806C19.8626 17.4042 20.8545 16.4995 21.0291 15.2977L21.9781 8.73929L21.9945 8.58865C22.0819 7.38957 21.132 6.34888 19.9089 6.34888H5.81198L5.57725 3.54715L5.55956 3.43629C5.49112 3.14797 5.25673 2.92261 4.95778 2.87087L2.87778 2.51087ZM7.47394 15.9796C6.97867 15.9253 6.58258 15.5276 6.54028 15.0205L5.93798 7.84888H19.9089L19.997 7.85536C20.3128 7.9023 20.5409 8.19757 20.4936 8.52453L19.5446 15.0825L19.5208 15.1997C19.4005 15.6583 18.985 15.9859 18.5019 15.9859H7.58988L7.47394 15.9796ZM5.90828 20.5852C5.90828 19.7491 6.58595 19.0702 7.42228 19.0702C8.25849 19.0702 8.93728 19.749 8.93728 20.5852C8.93728 21.4215 8.25838 22.0992 7.42228 22.0992C6.58606 22.0992 5.90828 21.4214 5.90828 20.5852ZM17.1597 20.5852C17.1597 19.749 17.8385 19.0702 18.6747 19.0702C19.5109 19.0702 20.1897 19.749 20.1897 20.5852C20.1897 21.4215 19.5108 22.0992 18.6747 22.0992C17.8386 22.0992 17.1597 21.4215 17.1597 20.5852ZM17.6484 10.7949C17.6484 10.3807 17.3126 10.0449 16.8984 10.0449H14.1254L14.0236 10.0517C13.6575 10.1014 13.3754 10.4152 13.3754 10.7949C13.3754 11.2091 13.7112 11.5449 14.1254 11.5449H16.8984L17.0001 11.538C17.3662 11.4884 17.6484 11.1746 17.6484 10.7949Z" fill="#200E32"/>
</svg>
