<svg width="24" height="24" viewBox="0 0 24 24" fill="none" xmlns="http://www.w3.org/2000/svg">
<path d="M4.79432 7.05575C4.79432 5.80675 5.80732 4.79375 7.05532 4.79375H8.08432C8.68032 4.79375 9.25332 4.55775 9.67732 4.13675L10.3963 3.41675C11.2773 2.53175 12.7093 2.52775 13.5943 3.40875L13.6033 3.41675L14.3233 4.13675C14.7463 4.55775 15.3193 4.79375 15.9163 4.79375H16.9443C18.1933 4.79375 19.2063 5.80675 19.2063 7.05575V8.08275C19.2063 8.68075 19.4423 9.25275 19.8633 9.67675L20.5833 10.3967C21.4683 11.2777 21.4733 12.7087 20.5923 13.5947L20.5833 13.6037L19.8633 14.3237C19.4423 14.7457 19.2063 15.3197 19.2063 15.9157V16.9447C19.2063 18.1937 18.1933 19.2057 16.9443 19.2057H15.9163C15.3193 19.2057 14.7463 19.4427 14.3233 19.8637L13.6033 20.5827C12.7233 21.4687 11.2913 21.4727 10.4053 20.5917C10.4023 20.5887 10.3993 20.5857 10.3963 20.5827L9.67732 19.8637C9.25332 19.4427 8.68032 19.2057 8.08432 19.2057H7.05532C5.80732 19.2057 4.79432 18.1937 4.79432 16.9447V15.9157C4.79432 15.3197 4.55732 14.7457 4.13632 14.3237L3.41732 13.6037C2.53132 12.7227 2.52732 11.2907 3.40832 10.4057L3.41732 10.3967L4.13632 9.67675C4.55732 9.25275 4.79432 8.68075 4.79432 8.08275V7.05575" stroke="#200E32" stroke-width="1.5" stroke-linecap="round" stroke-linejoin="round"/>
<path opacity="0.4" d="M9.42999 14.5697L14.57 9.42969" stroke="#200E32" stroke-width="1.5" stroke-linecap="round" stroke-linejoin="round"/>
<path opacity="0.4" d="M14.5667 15.3225C14.3667 15.3225 14.1767 15.2425 14.0367 15.1025C13.9667 15.0325 13.9167 14.9425 13.8767 14.8525C13.8367 14.7625 13.8167 14.6735 13.8167 14.5725C13.8167 14.4725 13.8367 14.3725 13.8767 14.2825C13.9167 14.1925 13.9667 14.1125 14.0367 14.0425C14.3167 13.7625 14.8167 13.7625 15.0967 14.0425C15.1667 14.1125 15.2267 14.1925 15.2667 14.2825C15.2967 14.3725 15.3167 14.4725 15.3167 14.5725C15.3167 14.6735 15.2967 14.7625 15.2667 14.8525C15.2267 14.9425 15.1667 15.0325 15.0967 15.1025C14.9567 15.2425 14.7667 15.3225 14.5667 15.3225Z" fill="#200E32"/>
<path opacity="0.4" d="M9.42664 10.1826C9.32664 10.1826 9.23664 10.1616 9.14664 10.1216C9.05664 10.0816 8.96664 10.0326 8.89664 9.96264C8.82664 9.88264 8.77664 9.80264 8.73664 9.71264C8.69664 9.62164 8.67664 9.53264 8.67664 9.43264C8.67664 9.33164 8.69664 9.23264 8.73664 9.14264C8.77664 9.05264 8.82664 8.96264 8.89664 8.90264C9.18664 8.62164 9.67664 8.62164 9.95664 8.90264C10.0966 9.04164 10.1766 9.23264 10.1766 9.43264C10.1766 9.53264 10.1666 9.62164 10.1266 9.71264C10.0866 9.80264 10.0266 9.88264 9.95664 9.96264C9.88664 10.0326 9.80664 10.0816 9.71664 10.1216C9.62664 10.1616 9.52664 10.1826 9.42664 10.1826Z" fill="#200E32"/>
</svg>
