<svg width="24" height="24" viewBox="0 0 24 24" fill="none" xmlns="http://www.w3.org/2000/svg">
<path d="M4.0838 15.8642C3.82544 15.7181 3.61262 15.5031 3.45274 15.2289C3.29391 14.9578 3.18803 14.6254 3.14144 14.2452C2.94344 12.8328 2.9625 10.281 3.14144 8.83889C3.28015 7.84359 3.96733 7.06006 4.98485 7.06006H7.09721L10.8105 4.02124C11.1356 3.74594 11.6967 3.48547 12.0398 3.49183C12.763 3.47065 13.4332 3.99689 13.6894 4.85559C13.8324 5.403 13.8747 5.745 13.9457 6.33689" stroke="#200E32" stroke-width="1.5" stroke-linecap="round" stroke-linejoin="round"/>
<path d="M14.0661 13.8984C14.047 15.2336 14.0015 16.0468 13.9432 16.5158C13.8712 17.1067 13.8501 17.6911 13.6902 18.2915C13.4329 19.1513 12.7626 19.6764 12.0395 19.6553C11.6975 19.6627 11.2136 19.4541 10.8885 19.1788L9.49194 18.0395" stroke="#200E32" stroke-width="1.5" stroke-linecap="round" stroke-linejoin="round"/>
<path opacity="0.4" d="M20.2018 3L3.0542 20.1476" stroke="#200E32" stroke-width="1.5" stroke-linecap="round" stroke-linejoin="round"/>
</svg>
