<svg width="24" height="24" viewBox="0 0 24 24" fill="none" xmlns="http://www.w3.org/2000/svg">
<path fill-rule="evenodd" clip-rule="evenodd" d="M14.7364 2.76172H8.08443C6.02543 2.76172 4.25043 4.43072 4.25043 6.49072V17.2277C4.25043 19.4037 5.90843 21.1147 8.08443 21.1147H16.0724C18.1324 21.1147 19.8024 19.2877 19.8024 17.2277V8.03772L14.7364 2.76172Z" stroke="#200E32" stroke-width="1.5" stroke-linecap="round" stroke-linejoin="round"/>
<path d="M14.4738 2.75V5.659C14.4738 7.079 15.6228 8.231 17.0428 8.234C18.3588 8.237 19.7058 8.238 19.7968 8.232" stroke="#200E32" stroke-width="1.5" stroke-linecap="round" stroke-linejoin="round"/>
<path opacity="0.4" fill-rule="evenodd" clip-rule="evenodd" d="M12.3907 9.44043C12.3907 9.02622 12.055 8.69043 11.6407 8.69043C11.2265 8.69043 10.8907 9.02622 10.8907 9.44043V14.1978L9.33385 12.6337C9.04162 12.3402 8.56675 12.3391 8.27319 12.6313C7.97963 12.9235 7.97854 13.3984 8.27077 13.692L11.1088 16.543C11.2495 16.6843 11.4408 16.7638 11.6402 16.7638C11.8296 16.7639 12.0116 16.6922 12.15 16.564C12.1589 16.5558 12.1676 16.5473 12.1761 16.5387L15.0108 13.6921C15.303 13.3985 15.302 12.9237 15.0085 12.6314C14.715 12.3391 14.2401 12.3401 13.9479 12.6336L12.3907 14.1973V9.44043Z" fill="#200E32"/>
</svg>
