<svg width="24" height="24" viewBox="0 0 24 24" fill="none" xmlns="http://www.w3.org/2000/svg">
<path fill-rule="evenodd" clip-rule="evenodd" d="M16.3347 2.00024H7.6657C4.26813 2.00024 2.0007 4.43284 2.0007 7.91624V16.0842C2.0007 19.5713 4.2614 22.0002 7.6657 22.0002H16.3337C19.7383 22.0002 22.0007 19.5709 22.0007 16.0842V7.91624C22.0007 4.42975 19.7385 2.00024 16.3347 2.00024ZM7.6657 3.50024H16.3347C18.8852 3.50024 20.5007 5.23521 20.5007 7.91624V16.0842C20.5007 18.7654 18.8851 20.5002 16.3337 20.5002H7.6657C5.11484 20.5002 3.5007 18.766 3.5007 16.0842V7.91624C3.5007 5.23862 5.12104 3.50024 7.6657 3.50024ZM12.7435 7.53197C12.6938 7.1659 12.38 6.88374 12.0003 6.88374C11.5861 6.88374 11.2503 7.21953 11.2503 7.63374V11.9947L11.2587 12.1065C11.2918 12.3265 11.4216 12.5228 11.6161 12.6388L15.0071 14.6618L15.098 14.7081C15.4378 14.853 15.8409 14.7281 16.0354 14.402L16.0817 14.3111C16.2266 13.9713 16.1016 13.5682 15.7756 13.3737L12.75 11.568L12.7503 7.63374L12.7435 7.53197Z" fill="#200E32"/>
</svg>
