<svg width="24" height="24" viewBox="0 0 24 24" fill="none" xmlns="http://www.w3.org/2000/svg">
<path opacity="0.4" fill-rule="evenodd" clip-rule="evenodd" d="M5.46439 10.9321C5.46439 10.5179 5.1286 10.1821 4.71439 10.1821C4.30017 10.1821 3.96439 10.5179 3.96439 10.9321C3.96439 15.1831 7.21631 18.6736 11.3686 19.052V21.1469C11.3686 21.5611 11.7044 21.8969 12.1186 21.8969C12.5328 21.8969 12.8686 21.5611 12.8686 21.1469V19.0519C17.0205 18.6732 20.273 15.183 20.273 10.9321C20.273 10.5179 19.9372 10.1821 19.523 10.1821C19.1087 10.1821 18.773 10.5179 18.773 10.9321C18.773 14.6073 15.7936 17.5859 12.1182 17.5859C8.44289 17.5859 5.46439 14.6074 5.46439 10.9321Z" fill="#200E32"/>
<path fill-rule="evenodd" clip-rule="evenodd" d="M11.9922 3.46387C10.3855 3.46387 9.0822 4.76713 9.0822 6.37387V10.9243C9.0822 12.5319 10.3853 13.8343 11.9922 13.8343H12.2446C13.8523 13.8343 15.1546 12.532 15.1546 10.9243V10.7985H13.0492C12.6349 10.7985 12.2992 10.4627 12.2992 10.0485C12.2992 9.63424 12.6349 9.29846 13.0492 9.29846H15.1546V7.62695H14.0015C13.5873 7.62695 13.2515 7.29116 13.2515 6.87695C13.2515 6.46273 13.5873 6.12695 14.0015 6.12695H15.1443C15.0189 4.6356 13.7689 3.46387 12.2446 3.46387H11.9922ZM7.5822 6.37387C7.5822 3.9387 9.55703 1.96387 11.9922 1.96387H12.2446C14.6808 1.96387 16.6546 3.93883 16.6546 6.37387V10.9243C16.6546 13.3605 14.6807 15.3343 12.2446 15.3343H11.9922C9.55716 15.3343 7.5822 13.3606 7.5822 10.9243V6.37387Z" fill="#200E32"/>
</svg>
