<svg width="24" height="24" viewBox="0 0 24 24" fill="none" xmlns="http://www.w3.org/2000/svg">
<path opacity="0.4" d="M19.3249 9.46777C19.3249 9.46777 18.7819 16.2028 18.4669 19.0398C18.3169 20.3948 17.4799 21.1888 16.1089 21.2138C13.4999 21.2608 10.8879 21.2638 8.2799 21.2088C6.9609 21.1818 6.1379 20.3778 5.9909 19.0468C5.6739 16.1848 5.1339 9.46777 5.1339 9.46777" stroke="#200E32" stroke-width="1.5" stroke-linecap="round" stroke-linejoin="round"/>
<path d="M20.7082 6.23926H3.7502" stroke="#200E32" stroke-width="1.5" stroke-linecap="round" stroke-linejoin="round"/>
<path d="M17.4406 6.23949C16.6556 6.23949 15.9796 5.68449 15.8256 4.91549L15.5826 3.69949C15.4326 3.13849 14.9246 2.75049 14.3456 2.75049H10.1126C9.53359 2.75049 9.02559 3.13849 8.87559 3.69949L8.63259 4.91549C8.47859 5.68449 7.80259 6.23949 7.01759 6.23949" stroke="#200E32" stroke-width="1.5" stroke-linecap="round" stroke-linejoin="round"/>
</svg>
