<svg width="24" height="24" viewBox="0 0 24 24" fill="none" xmlns="http://www.w3.org/2000/svg">
<path fill-rule="evenodd" clip-rule="evenodd" d="M20.7196 2.22065C21.0125 1.92775 21.4874 1.92775 21.7803 2.22065C22.0465 2.48691 22.0708 2.90358 21.8529 3.19719L21.7803 3.28131L12.3344 12.7272C13.0529 13.3277 13.8864 13.8234 14.8191 14.2078C15.0106 14.2784 15.1626 14.2496 15.5273 14.0505L15.7279 13.9371C16.5156 13.4841 16.9648 13.3315 17.6439 13.4745C18.2636 13.5958 20.5247 15.2983 21.2905 16.0917C21.6944 16.5119 21.9535 16.9649 21.9993 17.5213C22.0528 18.8931 20.3908 20.8114 19.3785 21.3799C18.2301 22.208 16.7677 22.1959 15.1331 21.4346C13.2187 20.6424 10.7732 18.8559 8.44482 16.6168L3.28028 21.7813C2.98738 22.0742 2.51251 22.0742 2.21962 21.7813C1.95335 21.515 1.92914 21.0984 2.147 20.8048L2.21962 20.7206L10.7033 12.2369C10.7087 12.2312 10.7142 12.2255 10.7198 12.22C10.7252 12.2146 10.7307 12.2093 10.7362 12.2041L20.7196 2.22065ZM11.2702 13.7914L9.50574 15.5558C11.7049 17.6666 13.9997 19.3423 15.7362 20.0616C16.8744 20.5911 17.735 20.6308 18.4327 20.2095L18.5701 20.1191C19.2132 19.7546 20.5262 18.2392 20.5025 17.613C20.4925 17.494 20.3965 17.3262 20.2102 17.1324C19.6525 16.5545 17.5735 14.9892 17.3453 14.9445C17.1553 14.9045 16.9941 14.9488 16.6116 15.1606L16.4026 15.2794C15.5881 15.7459 15.0496 15.8913 14.2744 15.6051C13.1374 15.1371 12.1328 14.5319 11.2702 13.7914ZM6.51507 2.00346C7.03686 2.04851 7.48923 2.30665 7.91271 2.71231C8.24103 3.03074 8.83734 3.74879 9.37986 4.4711L9.66322 4.85429C10.189 5.57646 10.4702 6.0391 10.5235 6.34617C10.6565 6.97803 10.5395 7.40795 10.1706 8.08213L10.0238 8.34186C9.75907 8.80459 9.71472 8.9689 9.78356 9.15734C9.87483 9.38011 9.96541 9.5826 10.0586 9.77078C10.2425 10.142 10.0906 10.5919 9.71944 10.7757C9.34827 10.9596 8.89833 10.8077 8.71448 10.4366C8.60458 10.2147 8.49965 9.98014 8.38572 9.70076C8.13099 9.00874 8.23518 8.4969 8.6199 7.78051L8.76294 7.52536C9.04052 7.04202 9.10011 6.86644 9.05073 6.62973L9.02937 6.59014C8.94907 6.45636 8.65117 6.00887 8.27536 5.49957L8.17986 5.3711C7.68144 4.70751 7.12703 4.03991 6.87175 3.7923C6.67587 3.60467 6.50708 3.50835 6.41405 3.49979C5.82361 3.47102 4.46622 4.59341 3.91776 5.37812L3.83412 5.50552C3.396 6.10228 3.38376 6.93585 3.86668 8.08576L3.96305 8.30509C4.48098 9.56279 5.498 11.1123 6.86192 12.7436C7.12762 13.0614 7.0854 13.5344 6.76763 13.8001C6.44986 14.0657 5.97686 14.0235 5.71117 13.7058C4.35417 12.0828 3.30866 10.5195 2.70937 9.1856L2.58783 8.90335C1.81462 7.21752 1.78984 5.75539 2.58832 4.67267C3.28846 3.51857 5.15524 1.93668 6.51507 2.00346Z" fill="#200E32"/>
</svg>
